<svg width="800" height="800" viewBox="0 0 800 800" fill="none" xmlns="http://www.w3.org/2000/svg">
<g clip-path="url(#clip0_211_3)">
<path d="M500 150C513.261 150 525.979 155.268 535.355 164.645C544.732 174.021 550 186.739 550 200V600C550 613.261 544.732 625.979 535.355 635.355C525.979 644.732 513.261 650 500 650H300C286.739 650 274.021 644.732 264.645 635.355C255.268 625.979 250 613.261 250 600V200C250 186.739 255.268 174.021 264.645 164.645C274.021 155.268 286.739 150 300 150H500ZM300 100C273.478 100 248.043 110.536 229.289 129.289C210.536 148.043 200 173.478 200 200V600C200 626.522 210.536 651.957 229.289 670.711C248.043 689.464 273.478 700 300 700H500C526.522 700 551.957 689.464 570.711 670.711C589.464 651.957 600 626.522 600 600V200C600 173.478 589.464 148.043 570.711 129.289C551.957 110.536 526.522 100 500 100H300Z" fill="black"/>
<path d="M400 600C413.261 600 425.979 594.732 435.356 585.356C444.733 575.979 450 563.261 450 550C450 536.739 444.733 524.022 435.356 514.645C425.979 505.268 413.261 500 400 500C386.74 500 374.022 505.268 364.645 514.645C355.268 524.022 350 536.739 350 550C350 563.261 355.268 575.979 364.645 585.356C374.022 594.732 386.74 600 400 600ZM79.9504 202.9C82.8532 204.436 85.4249 206.529 87.5187 209.059C89.6124 211.589 91.1872 214.507 92.153 217.646C93.1188 220.784 93.4567 224.083 93.1474 227.352C92.8381 230.622 91.8877 233.798 90.3504 236.7C63.7626 287.02 49.9088 343.088 50.0004 400C50.0004 459 64.6004 514.6 90.3504 563.3C93.4534 569.162 94.101 576.015 92.1506 582.354C90.2002 588.693 85.8117 593.997 79.9504 597.1C74.0891 600.203 67.2352 600.851 60.8965 598.901C54.5578 596.95 49.2534 592.562 46.1504 586.7C15.7516 529.169 -0.0933774 465.069 0.000413971 400C0.000413971 332.65 16.7004 269.05 46.1504 213.3C47.6863 210.398 49.779 207.826 52.3091 205.732C54.8391 203.638 57.7569 202.064 60.8958 201.098C64.0346 200.132 67.333 199.794 70.6024 200.103C73.8719 200.413 77.0484 201.363 79.9504 202.9ZM720.05 202.9C722.952 201.363 726.129 200.413 729.398 200.103C732.668 199.794 735.966 200.132 739.105 201.098C742.244 202.064 745.162 203.638 747.692 205.732C750.222 207.826 752.315 210.398 753.85 213.3C784.251 270.83 800.096 334.932 800 400C800.096 465.069 784.251 529.17 753.85 586.7C750.747 592.562 745.443 596.95 739.104 598.901C732.766 600.851 725.912 600.203 720.05 597.1C714.189 593.997 709.801 588.693 707.85 582.354C705.9 576.015 706.547 569.162 709.65 563.3C736.238 512.98 750.092 456.912 750 400C750 341 735.4 285.4 709.65 236.7C708.113 233.798 707.163 230.622 706.853 227.352C706.544 224.083 706.882 220.784 707.848 217.646C708.814 214.507 710.388 211.589 712.482 209.059C714.576 206.529 717.148 204.436 720.05 202.9ZM152.85 276.7C155.911 277.894 158.707 279.679 161.078 281.954C163.448 284.228 165.347 286.948 166.666 289.957C167.985 292.966 168.698 296.206 168.764 299.49C168.829 302.775 168.247 306.041 167.05 309.1C155.747 338.072 149.964 368.902 150 400C150 432.1 156 462.75 167 490.9C168.396 493.99 169.148 497.332 169.211 500.722C169.274 504.112 168.647 507.479 167.368 510.619C166.089 513.759 164.185 516.606 161.771 518.987C159.357 521.368 156.485 523.233 153.327 524.469C150.17 525.704 146.794 526.285 143.406 526.175C140.017 526.065 136.686 525.267 133.615 523.83C130.545 522.392 127.799 520.345 125.544 517.813C123.289 515.281 121.573 512.316 120.5 509.1C106.924 474.33 99.9708 437.327 100 400C100 361.55 107.25 324.75 120.5 290.9C122.911 284.731 127.672 279.77 133.738 277.107C139.803 274.445 146.677 274.299 152.85 276.7ZM647.15 276.7C650.21 275.503 653.476 274.921 656.76 274.987C660.045 275.053 663.285 275.766 666.294 277.085C669.303 278.404 672.022 280.302 674.297 282.673C676.572 285.044 678.357 287.839 679.55 290.9C692.75 324.75 700 361.55 700 400C700 438.45 692.75 475.25 679.5 509.1C676.863 514.942 672.082 519.547 666.146 521.965C660.21 524.383 653.572 524.429 647.604 522.093C641.635 519.757 636.791 515.217 634.074 509.412C631.356 503.607 630.972 496.98 633 490.9C644 462.75 650 432.1 650 400C650 367.9 644 337.25 633 309.1C630.58 302.927 630.712 296.046 633.365 289.97C636.019 283.894 640.978 279.12 647.15 276.7Z" fill="black"/>
<path d="M53.3662 732.708L726.817 41.8926" stroke="black" stroke-width="74"/>
</g>
<defs>
<clipPath id="clip0_211_3">
<rect width="800" height="800" fill="white"/>
</clipPath>
</defs>
</svg>
